<svg width="53" height="48" viewBox="0 0 53 48" fill="none" xmlns="http://www.w3.org/2000/svg">
<mask id="mask0_2565_48291" style="mask-type:luminance" maskUnits="userSpaceOnUse" x="3" y="0" width="47" height="48">
<path d="M48.9168 46.5833V1.41647H3.75V46.5833H48.9168Z" fill="white" stroke="white" stroke-width="1.5"/>
</mask>
<g mask="url(#mask0_2565_48291)">
<path d="M48.9871 25.2764V12.1247C48.9871 7.28249 45.0617 3.3571 40.2195 3.3571H12.4551C7.61289 3.3571 3.6875 7.28249 3.6875 12.1247V29.66C3.6875 34.5023 7.61289 38.4277 12.4551 38.4277H24.1454V43.1792C24.1454 44.3094 25.3734 45.0117 26.3475 44.4387L36.5663 38.4277H40.2195C45.0617 38.4277 48.9871 34.5023 48.9871 29.66V28.1989" stroke="#1D639A" stroke-width="1.5" stroke-miterlimit="10" stroke-linecap="round" stroke-linejoin="round"/>
<path d="M32.4416 13.3247L31.9717 13.7947C31.7073 14.0591 31.6778 14.4864 31.9204 14.771C32.4684 15.414 33.3299 16.8144 33.5719 19.4346C30.8726 19.4772 28.7646 21.9557 29.3588 24.7705C29.7072 26.4208 31.0424 27.7534 32.6932 28.0993C35.5286 28.6933 38.0255 26.5457 38.0255 23.8149C38.0255 17.967 34.749 14.4594 33.441 13.2921C33.1523 13.0343 32.7153 13.0511 32.4416 13.3247Z" stroke="#1D639A" stroke-width="1.5" stroke-miterlimit="10" stroke-linecap="round" stroke-linejoin="round"/>
<path d="M16.1097 20.5494C14.9974 21.544 14.3964 23.0979 14.7494 24.7705C15.0978 26.4208 16.4331 27.7534 18.0839 28.0993C20.9192 28.6933 23.4161 26.5457 23.4161 23.8149C23.4161 17.967 20.1396 14.4594 18.8317 13.292C18.5429 13.0343 18.1059 13.0511 17.8322 13.3247L17.3623 13.7947C17.0979 14.0591 17.0684 14.4863 17.311 14.771C17.859 15.414 18.7205 16.8144 18.9625 19.4346" stroke="#1D639A" stroke-width="1.5" stroke-miterlimit="10" stroke-linecap="round" stroke-linejoin="round"/>
</g>
</svg>
