<svg width="20" height="20" fill="none" xmlns="http://www.w3.org/2000/svg"><path d="M7.633 9.058a1.515 1.515 0 00-.275 0A3.683 3.683 0 013.8 5.367c0-2.042 1.65-3.7 3.7-3.7a3.696 3.696 0 01.133 7.392zm6.042-5.725a2.915 2.915 0 012.917 2.917 2.92 2.92 0 01-2.808 2.917.94.94 0 00-.217 0m-10.1 2.966c-2.017 1.35-2.017 3.55 0 4.892 2.291 1.533 6.05 1.533 8.341 0 2.017-1.35 2.017-3.55 0-4.892-2.283-1.525-6.041-1.525-8.341 0zm11.816 4.534a4.03 4.03 0 001.633-.725c1.3-.975 1.3-2.584 0-3.559-.458-.35-1.016-.583-1.608-.716" stroke="#1D639A" stroke-width="1.5" stroke-linecap="round" stroke-linejoin="round"/></svg>