<svg width="47" height="48" fill="none" xmlns="http://www.w3.org/2000/svg"><mask id="a" style="mask-type:luminance" maskUnits="userSpaceOnUse" x="0" y="0" width="47" height="48"><path d="M45.917 46.583V1.416H.75v45.167h45.167z" fill="#fff" stroke="#fff" stroke-width="1.5"/></mask><g mask="url(#a)" stroke="#1D639A" stroke-width="1.5" stroke-miterlimit="10" stroke-linecap="round" stroke-linejoin="round"><path d="M45.983 25.276V12.125a8.768 8.768 0 00-8.767-8.768H9.45a8.768 8.768 0 00-8.767 8.768V29.66a8.768 8.768 0 008.767 8.768h11.69v4.751a1.461 1.461 0 002.203 1.26l10.218-6.011h3.654a8.768 8.768 0 008.767-8.768V28.2"/><path d="M29.442 13.325l-.47.47a.723.723 0 00-.052.976c.548.643 1.41 2.043 1.652 4.664a4.387 4.387 0 00-4.213 5.336 4.36 4.36 0 003.334 3.328 4.39 4.39 0 005.332-4.284c0-5.848-3.276-9.356-4.584-10.523a.727.727 0 00-1 .033zM13.106 20.55a4.387 4.387 0 00-1.36 4.22 4.36 4.36 0 003.334 3.33 4.39 4.39 0 005.332-4.285c0-5.848-3.276-9.356-4.584-10.523a.727.727 0 00-1 .033l-.47.47a.723.723 0 00-.05.976c.547.643 1.409 2.043 1.65 4.664"/></g></svg>