<svg width="78" height="95" fill="none" xmlns="http://www.w3.org/2000/svg"><path d="M18.715 12.353c7.56-4.604 11.34-6.906 15.396-7.75a24 24 0 019.778 0c4.055.844 7.836 3.146 15.396 7.75 7.003 4.265 10.505 6.397 13.011 9.35a24 24 0 014.486 7.983C78 33.362 78 37.462 78 45.663v3.675c0 8.2 0 12.3-1.218 15.976a24 24 0 01-4.486 7.984c-2.506 2.951-6.008 5.084-13.011 9.35-7.56 4.603-11.34 6.905-15.396 7.749-3.225.67-6.553.67-9.778 0-4.055-.844-7.836-3.146-15.396-7.75-7.003-4.265-10.505-6.398-13.011-9.35a24 24 0 01-4.486-7.983C0 61.638 0 57.538 0 49.338v-3.675c0-8.2 0-12.3 1.218-15.977a24 24 0 014.486-7.983c2.506-2.953 6.008-5.085 13.011-9.35z" fill="url(#paint0_linear_2059_39661)"/><path d="M56.922 40.3a2.052 2.052 0 001.475-.618c1.384-1.41 3.705-4.234 3.705-7.309a5.156 5.156 0 00-8.927-3.539 5.262 5.262 0 00-1.435 3.757c.106 2.99 2.358 5.719 3.692 7.08a2.077 2.077 0 001.49.628zm-2.521-10.31a3.477 3.477 0 016.014 2.383c0 2.475-2.018 4.9-3.222 6.126a.394.394 0 01-.557-.01c-1.162-1.185-3.122-3.536-3.207-5.957a3.565 3.565 0 01.971-2.543zm5.29 2.41a2.771 2.771 0 10-5.543-.001 2.771 2.771 0 005.543 0zm-3.856 0a1.084 1.084 0 112.169 0 1.084 1.084 0 01-2.17 0zm6.425 30.22a.844.844 0 00-.813-.616H59.94v-4.147a.845.845 0 00-1.138-.791l-2.447.908a8.147 8.147 0 00-2.27-3.07h3.322a2.531 2.531 0 002.532-2.532V45.13a2.531 2.531 0 00-2.532-2.53H47.69a4.264 4.264 0 002.389-2.259 5.253 5.253 0 00.24-4.012 1.99 1.99 0 00-1.282-1.34 2.11 2.11 0 00-1.09-.015c.28-1.39.346-2.816.197-4.227a8.96 8.96 0 00-1.413-3.908c-1.639-2.34-3.748-3.3-7.524-3.425-3.29-.109-5.745.62-7.276 2.164a5.374 5.374 0 00-1.534 3.206c-1.232 1.131-1.378 3.207-.467 6.172a2.049 2.049 0 00-.928.034 1.992 1.992 0 00-1.274 1.337 5.256 5.256 0 00.24 4.013 4.263 4.263 0 002.385 2.26H20.59a2.531 2.531 0 00-2.532 2.53v7.242a2.531 2.531 0 002.532 2.532h3.306a8.153 8.153 0 00-2.234 3.07l-2.42-.908a.845.845 0 00-1.14.79v4.15H16.55a.843.843 0 00-.813.615 11.966 11.966 0 000 6.468.844.844 0 00.813.616h1.55v2.047a.844.844 0 00.844.844h40.152a.844.844 0 00.844-.844v-2.048h1.507a.843.843 0 00.813-.616 11.965 11.965 0 000-6.468zm-7.483-4.06l-2.908 1.083.113-4.134a6.457 6.457 0 012.795 3.051zm-15.51-1.51a.845.845 0 00-.495 0l-7.496 2.302.157-5.951.528-.193a9.748 9.748 0 0014.04.075l.591.208.155 5.856-7.48-2.297zm-6.39-10.04c.114.12.228.23.338.344v2.193a2.013 2.013 0 01-1.318 1.885l-.574.21a1.24 1.24 0 00-1.38-.661l-2.193.476a2.232 2.232 0 00-1.714 1.759h-.59v-8.93h5.697a8.359 8.359 0 001.734 2.723zm2.371-16.843c.82-.373 2.654.24 3.413.59a.843.843 0 00.717 0c.76-.354 2.595-.966 3.413-.59 1.28.584 2.288 1.045 2.025 4.422a.844.844 0 00.089.448l.886 1.74v4.42a6.703 6.703 0 01-1.85 4.65 10.407 10.407 0 01-3.84 2.793 3.93 3.93 0 01-2.161 0 10.418 10.418 0 01-3.841-2.793 6.704 6.704 0 01-1.85-4.651v-4.419l.884-1.74c.07-.138.1-.293.088-.448-.261-3.38.748-3.838 2.027-4.422zM50.272 51.46l-2.194-.475a1.244 1.244 0 00-1.419.743l-.598-.213a1.862 1.862 0 01-1.24-1.754v-2.405c.114-.114.227-.225.338-.345a8.36 8.36 0 001.739-2.722h5.686v8.929h-.59a2.234 2.234 0 00-1.722-1.758zm-5.858 1.03a8.1 8.1 0 01-10.871-.073 3.712 3.712 0 001.364-2.868v-.704a8.875 8.875 0 002.498 1.394 5.615 5.615 0 003.23 0 8.874 8.874 0 002.499-1.394v.914a3.554 3.554 0 001.28 2.728v.003zM27.862 60.3l-.183-6.646a.547.547 0 01.431-.548l1.654-.359-.187 7.127-1.564.48-.15-.054zm20.588-.429l-.188-7.121 1.654.357a.549.549 0 01.431.55l-.18 6.618-.181.067-1.536-.471zm9.803-14.739v7.242a.844.844 0 01-.844.844h-.374v-8.93h.374a.844.844 0 01.844.844zm-2.906-.843v8.929h-1.076v-8.93h1.076zm-6.808-7.685c.057.017.132.133.189.295.3.892.24 1.866-.169 2.714-.23.506-.605.932-1.076 1.226v-3.813c.585-.383.946-.454 1.056-.422zm-16.846-6.697a.845.845 0 00.368-.732 3.604 3.604 0 011.069-2.408c1.17-1.181 3.259-1.752 6.02-1.665 3.252.107 4.872.816 6.197 2.707.6.928.98 1.98 1.114 3.078a15.8 15.8 0 01.052 1.946 4.392 4.392 0 00-3.019-4.2c-1.452-.663-3.602.084-4.472.444-.871-.358-3.021-1.108-4.471-.444-1.79.817-3.253 1.825-3.03 5.758-.7-2.31-.659-3.918.172-4.484zm-2.208 9.703a3.602 3.602 0 01-.168-2.714c.057-.162.131-.278.189-.296.107-.032.467.035 1.06.422v3.815a2.827 2.827 0 01-1.08-1.224v-.003zm-9.739 12.764v-7.242a.844.844 0 01.844-.843h.4v8.929h-.4a.844.844 0 01-.844-.844zm2.931.844v-8.93h1.08v8.93h-1.08zm3.363 2.249l.115 4.193-2.913-1.092a6.467 6.467 0 012.798-3.101zm-8.83 8.228h1.767a2.162 2.162 0 110 4.324H17.21a10.28 10.28 0 010-4.324zm10.775 2.403a.844.844 0 00-.843.844v3.965h-7.353v-1.291a3.846 3.846 0 000-7.52v-3.02l7.9 2.962c.175.065.366.07.544.017L38.178 59v11.91h-9.349v-3.966a.845.845 0 00-.844-.846zm11.88 4.81v-11.91l9.306 2.859v3.509a.844.844 0 101.688 0v-3.55l7.395-2.747v3.013a3.85 3.85 0 000 7.543v1.282l-18.389-.002zm20.925-2.892h-1.767a2.163 2.163 0 010-4.325h1.766a10.312 10.312 0 010 4.327l.001-.002zm-31.96-3.764a.844.844 0 11-1.688 0 .844.844 0 011.688 0zm22.03 3.802a.844.844 0 11-.065-.323.844.844 0 01.064.323z" fill="url(#paint1_linear_2059_39661)"/><defs><linearGradient id="paint0_linear_2059_39661" x1="9.028" y1="107.16" x2="64.291" y2="17.661" gradientUnits="userSpaceOnUse"><stop stop-color="#EFF3F6" stop-opacity=".8"/><stop offset="1" stop-color="#EFF3F6" stop-opacity="0"/></linearGradient><linearGradient id="paint1_linear_2059_39661" x1="45.297" y1="41.414" x2="13.253" y2="76.06" gradientUnits="userSpaceOnUse"><stop stop-color="#307EBC"/><stop offset="1" stop-color="#52C788"/></linearGradient></defs></svg>