<svg width="78" height="95" fill="none" xmlns="http://www.w3.org/2000/svg"><path d="M18.715 12.353c7.56-4.604 11.34-6.906 15.396-7.75a24 24 0 019.778 0c4.055.844 7.836 3.146 15.396 7.75 7.003 4.265 10.505 6.397 13.011 9.35a24 24 0 014.486 7.983C78 33.362 78 37.462 78 45.663v3.675c0 8.2 0 12.3-1.218 15.976a24 24 0 01-4.486 7.984c-2.506 2.951-6.008 5.084-13.011 9.35-7.56 4.603-11.34 6.905-15.396 7.749-3.225.67-6.553.67-9.778 0-4.055-.844-7.836-3.146-15.396-7.75-7.003-4.265-10.505-6.398-13.011-9.35a24 24 0 01-4.486-7.983C0 61.638 0 57.538 0 49.338v-3.675c0-8.2 0-12.3 1.218-15.977a24 24 0 014.486-7.983c2.506-2.953 6.008-5.085 13.011-9.35z" fill="url(#paint0_linear_2059_39655)"/><g clip-path="url(#clip0_2059_39655)"><path d="M30.789 29.569a.79.79 0 101.423-.691l-1.994-4.105a.791.791 0 10-1.422.692l1.993 4.104zm8.212-1.136a.791.791 0 00.79-.791v-4.105a.791.791 0 00-1.581 0v4.105a.791.791 0 00.79.791zm7.155 1.502a.788.788 0 001.054-.366l1.994-4.104a.791.791 0 00-1.423-.692l-1.993 4.105a.791.791 0 00.368 1.057zm8.56 2.691a.79.79 0 001.057-.366l1.104-2.271a.79.79 0 10-1.423-.692L54.35 31.57a.79.79 0 00.366 1.056zm2.657 30.416l-.015-.02-2.229-2.53a8.144 8.144 0 00-7.145-2.707l-6.652.844c-.714.093-1.464-.447-1.533-1.173a1.298 1.298 0 01.696-1.282l6.157-3.101a6.493 6.493 0 003.098-8.094l-.413-1.081a5.484 5.484 0 00-7.668-2.896 1.28 1.28 0 01-1.846-1.414c.14-.62.777-.924 1.291-1.225a7.889 7.889 0 0110.453 2.277.791.791 0 101.297-.908 9.52 9.52 0 00-3.4-2.974 9.417 9.417 0 00-8.036-.317 1.28 1.28 0 01.602-1.376c2.557-1.49 5.695-1.959 8.313-.604a7.92 7.92 0 012.83 2.476l4.399 6.279a.791.791 0 001.296-.908l-4.4-6.278a9.492 9.492 0 00-3.399-2.974c-3.195-1.656-6.764-1.16-9.839.644a2.858 2.858 0 00-1.227 3.48c-.368.19-.706.431-1.002.719a4.011 4.011 0 00-1.002-.718 2.858 2.858 0 00-1.228-3.48l-.69-.408a9.468 9.468 0 00-12.552 2.735L12.144 52.283a.79.79 0 001.295.907L24.83 36.935a7.892 7.892 0 0110.453-2.277c.598.35 1.485.925 1.293 1.781a9.417 9.417 0 00-8.036.316 9.518 9.518 0 00-3.4 2.975.792.792 0 101.296.908 7.889 7.889 0 0110.455-2.275l.69.404a1.28 1.28 0 01-1.244 2.235 5.483 5.483 0 00-7.672 2.896l-.413 1.08a6.494 6.494 0 003.105 8.097l6.144 3.096a1.298 1.298 0 01.702 1.284c-.067.722-.822 1.265-1.532 1.173l-3.787-.481a.79.79 0 10-.2 1.568l3.785.482a3.021 3.021 0 002.532-.906 3.017 3.017 0 002.531.906l6.652-.844a6.568 6.568 0 015.758 2.181l2.22 2.532 6.313 7.653a.793.793 0 001.322-.121.792.792 0 00-.102-.885l-6.322-7.671zm-18.372-7.696a2.926 2.926 0 00-.78-.585l-6.144-3.096a4.913 4.913 0 01-2.346-6.124l.41-1.079a3.9 3.9 0 015.455-2.06A2.862 2.862 0 0039 41.843a2.861 2.861 0 003.403.56 3.9 3.9 0 015.457 2.06l.413 1.078a4.91 4.91 0 01-2.34 6.117l-6.156 3.103c-.29.15-.552.348-.776.585zm26.857-3.063l-5.28-7.54a.792.792 0 00-1.297.909l5.282 7.538a.792.792 0 101.295-.907zm-35.84 5.498a8.144 8.144 0 00-7.145 2.706l-2.224 2.535-.016.02-6.325 7.664a.792.792 0 101.22 1.006l6.313-7.654 2.221-2.531a6.567 6.567 0 015.763-2.177.792.792 0 10.198-1.57h-.005zm-7.787-25.52a.788.788 0 001.458-.086.79.79 0 00-.035-.603l-1.106-2.275a.79.79 0 00-1.46.087.79.79 0 00.037.605l1.106 2.271z" fill="url(#paint1_linear_2059_39655)"/></g><defs><linearGradient id="paint0_linear_2059_39655" x1="9.028" y1="107.16" x2="64.291" y2="17.661" gradientUnits="userSpaceOnUse"><stop stop-color="#EFF3F6" stop-opacity=".8"/><stop offset="1" stop-color="#EFF3F6" stop-opacity="0"/></linearGradient><linearGradient id="paint1_linear_2059_39655" x1="46.188" y1="40.786" x2="14.667" y2="79.537" gradientUnits="userSpaceOnUse"><stop stop-color="#307EBC"/><stop offset="1" stop-color="#52C788"/></linearGradient><clipPath id="clip0_2059_39655"><path fill="#fff" transform="translate(12 21)" d="M0 0h54v54H0z"/></clipPath></defs></svg>