<svg width="78" height="95" fill="none" xmlns="http://www.w3.org/2000/svg"><path d="M18.715 12.353c7.56-4.604 11.34-6.906 15.396-7.75a24 24 0 019.778 0c4.055.844 7.836 3.146 15.396 7.75 7.003 4.265 10.505 6.397 13.011 9.35a24 24 0 014.486 7.983C78 33.362 78 37.462 78 45.663v3.675c0 8.2 0 12.3-1.218 15.976a24 24 0 01-4.486 7.984c-2.506 2.951-6.008 5.084-13.011 9.35-7.56 4.603-11.34 6.905-15.396 7.749-3.225.67-6.553.67-9.778 0-4.055-.844-7.836-3.146-15.396-7.75-7.003-4.265-10.505-6.398-13.011-9.35a24 24 0 01-4.486-7.983C0 61.638 0 57.538 0 49.338v-3.675c0-8.2 0-12.3 1.218-15.977a24 24 0 014.486-7.983c2.506-2.953 6.008-5.085 13.011-9.35z" fill="url(#paint0_linear_2059_39681)"/><path fill-rule="evenodd" clip-rule="evenodd" d="M39.252 21.348a.747.747 0 00-.504 0l-21.91 6.864a.75.75 0 00-.526.716v18.46c0 13.326 9.46 24.777 22.546 27.294a.75.75 0 00.284 0c13.086-2.517 22.545-13.968 22.545-27.295v-18.46a.75.75 0 00-.525-.715l-21.91-6.864zM39 22.841l-21.188 6.638v17.908c0 12.56 8.88 23.358 21.188 25.794 12.307-2.436 21.187-13.235 21.187-25.794V29.48L39 22.84zm-16.256 9.71l16.032-5.022a.75.75 0 01.448 0l16.031 5.022a.75.75 0 01.526.716v14.12a21.8 21.8 0 01-2.547 10.236.75.75 0 01-1.325-.703 20.299 20.299 0 002.372-9.533v-13.57L39 29.03l-15.281 4.788v13.57c0 9.325 6.354 17.43 15.281 19.738a20.288 20.288 0 006.96-3.311.75.75 0 11.89 1.207 21.787 21.787 0 01-7.67 3.605.75.75 0 01-.361 0c-9.688-2.41-16.6-11.159-16.6-21.24v-14.12a.75.75 0 01.525-.716zm21.124 7.327a.75.75 0 011.06 0l3.58 3.58a.75.75 0 010 1.06L37.615 55.414a.75.75 0 01-1.06 0L29.49 48.35a.75.75 0 010-1.06l3.58-3.58a.75.75 0 011.06 0l2.953 2.952 6.784-6.784zm.53 1.591l-6.784 6.784a.75.75 0 01-1.06 0L33.6 45.301l-2.519 2.519 6.002 6.002 9.834-9.834-2.52-2.519z" fill="url(#paint1_linear_2059_39681)"/><defs><linearGradient id="paint0_linear_2059_39681" x1="9.028" y1="107.16" x2="64.291" y2="17.661" gradientUnits="userSpaceOnUse"><stop stop-color="#EFF3F6" stop-opacity=".8"/><stop offset="1" stop-color="#EFF3F6" stop-opacity="0"/></linearGradient><linearGradient id="paint1_linear_2059_39681" x1="45.026" y1="40.851" x2="10.182" y2="74.071" gradientUnits="userSpaceOnUse"><stop stop-color="#307EBC"/><stop offset="1" stop-color="#52C788"/></linearGradient></defs></svg>