<svg width="78" height="95" fill="none" xmlns="http://www.w3.org/2000/svg"><path d="M18.715 12.353c7.56-4.604 11.34-6.906 15.396-7.75a24 24 0 019.778 0c4.055.844 7.836 3.146 15.396 7.75 7.003 4.265 10.505 6.397 13.011 9.35a24 24 0 014.486 7.983C78 33.362 78 37.462 78 45.663v3.675c0 8.2 0 12.3-1.218 15.976a24 24 0 01-4.486 7.984c-2.506 2.951-6.008 5.084-13.011 9.35-7.56 4.603-11.34 6.905-15.396 7.749-3.225.67-6.553.67-9.778 0-4.055-.844-7.836-3.146-15.396-7.75-7.003-4.265-10.505-6.398-13.011-9.35a24 24 0 01-4.486-7.983C0 61.638 0 57.538 0 49.338v-3.675c0-8.2 0-12.3 1.218-15.977a24 24 0 014.486-7.983c2.506-2.953 6.008-5.085 13.011-9.35z" fill="url(#paint0_linear_2059_39675)"/><path d="M38.682 39.503a58.09 58.09 0 00-14.138 30.306l-.41 2.804 1.67.244.41-2.803a56.407 56.407 0 0113.729-29.429l-1.26-1.122zm10.755 31.544h2.532v1.688h-2.532v-1.688z" fill="url(#paint1_linear_2059_39675)"/><path d="M62.094 44.047h-3.375v-9.28a3.374 3.374 0 00-6.41-1.478 22.92 22.92 0 00-2.078-1.718 56.598 56.598 0 017.753-4.448l-1.31 2.62 1.51.755 2.832-5.665L55.351 22l-.755 1.51 3.45 1.724a58.285 58.285 0 00-9.316 5.325 22.77 22.77 0 00-3.231-1.656 8.925 8.925 0 002.25-5.95v-.843h-.843a8.935 8.935 0 00-6.358 2.634l-1.439 1.438-6.888-2.755a2.529 2.529 0 00-2.73.56l-2.535 2.536 3.026 1.681a22.787 22.787 0 00-7.759 39.273l1.08-1.297a21.21 21.21 0 01-3.398-3.57h.146a3.234 3.234 0 003.23-3.23 1.533 1.533 0 01.452-1.091l1.977-1.977a3.208 3.208 0 00.946-2.284v-.554a3.209 3.209 0 00-.946-2.285l-.989-.988a3.234 3.234 0 00-4.568 0l-.145.145a1.533 1.533 0 01-1.09.451h-3.212a21.12 21.12 0 01.135-3.375h3.12a2.634 2.634 0 001.862-4.495l-2.735-2.735a21.09 21.09 0 0114.014-10.81l2.448 1.36-5.363 5.362v2.478l-3.578-1.43-3.83 3.829 5.072 2.028 2.028 5.071 3.83-3.83-1.432-3.578h2.479l5.362-5.362 4.219 7.594 2.535-2.536a2.528 2.528 0 00.56-2.73l-2.755-6.887.541-.541c1.045.394 2.056.872 3.025 1.428-.341.255-.68.515-1.016.777l1.041 1.328c.495-.389.997-.769 1.505-1.14a21.218 21.218 0 013.196 2.715v8.73h-3.375a2.534 2.534 0 00-2.532 2.53v20.25c0 .64.243 1.256.68 1.724a20.953 20.953 0 01-3.21 1.39v-.727a2.514 2.514 0 00-.742-1.79l-1.543-1.543a.839.839 0 01-.247-.596v-.989a.845.845 0 01.844-.843 2.534 2.534 0 002.53-2.532v-2.53a2.535 2.535 0 00-2.53-2.532H40.01a2.515 2.515 0 00-1.79.741l-4.073 4.074a.84.84 0 01-.597.247h-.989a2.534 2.534 0 00-2.53 2.532v1.832a2.514 2.514 0 00.74 1.79l.7.699a.837.837 0 01.247.596v2.065a20.938 20.938 0 01-3.05-1.005l-.65 1.558a22.823 22.823 0 0020.7-1.63h13.375a2.535 2.535 0 002.53-2.53v-20.25a2.534 2.534 0 00-2.53-2.532zm-43.176 8.438a3.208 3.208 0 002.284-.946l.144-.145a1.544 1.544 0 012.182 0l.989.989a1.531 1.531 0 01.452 1.09v.555a1.531 1.531 0 01-.452 1.09l-1.977 1.978a3.208 3.208 0 00-.946 2.284 1.544 1.544 0 01-1.543 1.542h-1.292a21.013 21.013 0 01-2.919-8.437h3.078zm.711-8.365a.946.946 0 01-.669 1.615h-2.846a20.99 20.99 0 011.21-3.92l2.305 2.305zm9.867.957l-1.347-3.366-3.367-1.347 1.234-1.233 3.366 1.347 1.347 3.366-1.233 1.233zM43.923 28.12l-2.226 2.225 3.169 7.921a.842.842 0 01-.187.91l-.954.954-4.218-7.594-6.45 6.45h-2.182v-2.182l6.45-6.45-4.919-2.733-.005-.027-.032.007-2.638-1.466.954-.953a.843.843 0 01.91-.187l7.92 3.168 2.226-2.225a7.249 7.249 0 014.267-2.085 7.249 7.249 0 01-2.085 4.267zm-2.08 42.315c-2.76.678-5.63.795-8.437.344v-2.407a2.514 2.514 0 00-.741-1.79l-.7-.699a.836.836 0 01-.246-.596v-1.832a.845.845 0 01.843-.844h.989a2.514 2.514 0 001.79-.742l4.074-4.073a.839.839 0 01.596-.248h1.833a.845.845 0 01.843.844v2.531a.845.845 0 01-.843.844 2.534 2.534 0 00-2.532 2.531v.989a2.515 2.515 0 00.742 1.79l1.542 1.543a.837.837 0 01.248.596v1.219zm11.813-35.668a1.687 1.687 0 013.375 0v9.281h-3.375v-9.28zm9.281 32.063a.845.845 0 01-.843.843h-13.5a.845.845 0 01-.844-.843V46.58a.845.845 0 01.844-.844h13.5a.845.845 0 01.843.844v20.25zm-3.375 4.218h2.532v1.688h-2.532v-1.688z" fill="url(#paint2_linear_2059_39675)"/><path d="M50.281 47.422h1.688v18.563H50.28V47.422zm4.219 0h1.687v18.563H54.5V47.422zm4.219 0h1.687v18.563H58.72V47.422zm-21.094.844v.494l-2.037 2.037a1.675 1.675 0 00-.494 1.194v.494a1.69 1.69 0 001.687 1.687h2.182a1.677 1.677 0 001.193-.494l1.193-1.193h1.338a1.69 1.69 0 001.688-1.688v-2.53a1.69 1.69 0 00-1.688-1.688h-3.375a1.69 1.69 0 00-1.687 1.687zm1.687.495v-.495h3.375v2.531H41.35a1.677 1.677 0 00-1.193.495l-1.193 1.193h-2.182v-.494l2.037-2.037a1.678 1.678 0 00.494-1.194z" fill="url(#paint3_linear_2059_39675)"/><defs><linearGradient id="paint0_linear_2059_39675" x1="9.028" y1="107.16" x2="64.291" y2="17.661" gradientUnits="userSpaceOnUse"><stop stop-color="#EFF3F6" stop-opacity=".8"/><stop offset="1" stop-color="#EFF3F6" stop-opacity="0"/></linearGradient><linearGradient id="paint1_linear_2059_39675" x1="46.036" y1="40.619" x2="13.009" y2="77.5" gradientUnits="userSpaceOnUse"><stop stop-color="#307EBC"/><stop offset="1" stop-color="#52C788"/></linearGradient><linearGradient id="paint2_linear_2059_39675" x1="46.036" y1="40.619" x2="13.009" y2="77.5" gradientUnits="userSpaceOnUse"><stop stop-color="#307EBC"/><stop offset="1" stop-color="#52C788"/></linearGradient><linearGradient id="paint3_linear_2059_39675" x1="46.036" y1="40.619" x2="13.009" y2="77.5" gradientUnits="userSpaceOnUse"><stop stop-color="#307EBC"/><stop offset="1" stop-color="#52C788"/></linearGradient></defs></svg>