<svg width="78" height="95" fill="none" xmlns="http://www.w3.org/2000/svg"><path d="M18.715 12.353c7.56-4.604 11.34-6.906 15.396-7.75a24 24 0 019.778 0c4.055.844 7.836 3.146 15.396 7.75 7.003 4.265 10.505 6.397 13.011 9.35a24 24 0 014.486 7.983C78 33.362 78 37.462 78 45.663v3.675c0 8.2 0 12.3-1.218 15.976a24 24 0 01-4.486 7.984c-2.506 2.951-6.008 5.084-13.011 9.35-7.56 4.603-11.34 6.905-15.396 7.749-3.225.67-6.553.67-9.778 0-4.055-.844-7.836-3.146-15.396-7.75-7.003-4.265-10.505-6.398-13.011-9.35a24 24 0 01-4.486-7.983C0 61.638 0 57.538 0 49.338v-3.675c0-8.2 0-12.3 1.218-15.977a24 24 0 014.486-7.983c2.506-2.953 6.008-5.085 13.011-9.35z" fill="url(#paint0_linear_2059_39668)"/><path d="M62.127 63.976L60.33 42.302a.793.793 0 00-1.392-.446.792.792 0 00-.185.576l1.73 20.886-3.923.325-.348-1.797.574-.047a.79.79 0 10-.131-1.577l-.746.062-.23-1.184.877-.073a.792.792 0 00-.13-1.577l-1.05.087-1.61-8.31 3.444-.285a.79.79 0 00.723-.854l-2.1-25.337 1.28-.106 1.306 15.764a.793.793 0 001.392.446.792.792 0 00.185-.576l-1.371-16.553a.791.791 0 00-.854-.723l-29.504 2.444h-.004l-2.854.237a.79.79 0 00-.723.853l.464 5.6-8.643 1.676a.79.79 0 00-.626.927l4.175 21.538a.79.79 0 101.553-.301l-4.025-20.762 1.26-.244 4.84 24.959a.791.791 0 00.926.626l19.2-3.722a.79.79 0 10-.301-1.553l-18.423 3.571-4.688-24.182 24.698-4.788 4.689 24.182-2.918.566a.791.791 0 00.301 1.553l3.694-.717a.79.79 0 00.626-.927L46.65 27.581l1.26-.245 7.767 40.067-30.325 5.879-3.035-15.653a.792.792 0 10-1.553.3l3.185 16.43a.791.791 0 00.927.626l31.879-6.18a.792.792 0 00.626-.927l-.518-2.673 4.54-.376a.791.791 0 00.722-.853zM26.712 29.834l-.384-4.639 1.28-.106.373 4.5-1.269.245zm22.6-3.575a.79.79 0 00-.927-.626l-18.842 3.652-.359-4.327 25.073-2.077 2.034 24.55-2.829.234-4.15-21.406z" fill="url(#paint1_linear_2059_39668)"/><path d="M41.737 34.313c-1.253-1.187-2.46-1.262-3.25-1.115-2.07.381-3.658 2.603-4.418 3.89-1.187-.91-3.49-2.376-5.551-1.958-.79.16-1.88.681-2.599 2.25-.99 2.162.484 5.055 4.383 8.597 2.74 2.489 5.676 4.4 5.8 4.48a.79.79 0 001.077-.208c.085-.121 2.094-2.991 3.706-6.324 2.292-4.742 2.58-7.976.852-9.612zm-2.27 8.908C38.35 45.535 37 47.67 36.32 48.696c-1.011-.697-3.053-2.164-4.953-3.89-3.237-2.94-4.66-5.344-4.008-6.768.359-.784.84-1.228 1.473-1.357.146-.03.294-.043.442-.043 1.643 0 3.763 1.586 4.5 2.256a.792.792 0 001.245-.241c.473-.98 2.07-3.59 3.757-3.9.635-.117 1.248.115 1.874.709 1.135 1.075.716 3.83-1.181 7.76zm12.468 19.416a.79.79 0 00-.928-.626l-6.346 1.23a.791.791 0 00.301 1.553l6.347-1.23a.792.792 0 00.626-.928zm.529 2.73a.79.79 0 00-.927-.626l-2.288.443a.791.791 0 00.301 1.553l2.288-.443a.79.79 0 00.626-.927z" fill="url(#paint2_linear_2059_39668)"/><defs><linearGradient id="paint0_linear_2059_39668" x1="9.028" y1="107.16" x2="64.291" y2="17.661" gradientUnits="userSpaceOnUse"><stop stop-color="#EFF3F6" stop-opacity=".8"/><stop offset="1" stop-color="#EFF3F6" stop-opacity="0"/></linearGradient><linearGradient id="paint1_linear_2059_39668" x1="45.142" y1="40.77" x2="9.888" y2="74.65" gradientUnits="userSpaceOnUse"><stop stop-color="#307EBC"/><stop offset="1" stop-color="#52C788"/></linearGradient><linearGradient id="paint2_linear_2059_39668" x1="45.142" y1="40.77" x2="9.888" y2="74.65" gradientUnits="userSpaceOnUse"><stop stop-color="#307EBC"/><stop offset="1" stop-color="#52C788"/></linearGradient></defs></svg>